<svg width="38" height="24" viewBox="0 0 38 24" fill="none" xmlns="http://www.w3.org/2000/svg">
<path d="M15.9658 12.2075C15.3691 12.2075 14.8317 12.0806 14.3535 11.8267C13.8796 11.5728 13.505 11.2173 13.23 10.7603C12.9549 10.299 12.8174 9.76579 12.8174 9.16064C12.8174 8.55127 12.9549 8.01807 13.23 7.56104C13.505 7.09977 13.8796 6.74219 14.3535 6.48828C14.8317 6.23438 15.3691 6.10742 15.9658 6.10742H22.0278C22.6245 6.10742 23.1598 6.23438 23.6338 6.48828C24.112 6.74219 24.4886 7.09977 24.7637 7.56104C25.0387 8.01807 25.1763 8.55127 25.1763 9.16064C25.1763 9.76579 25.0387 10.299 24.7637 10.7603C24.4886 11.2173 24.112 11.5728 23.6338 11.8267C23.1598 12.0806 22.6245 12.2075 22.0278 12.2075H15.9658ZM15.9658 10.9316H22.0278C22.3706 10.9316 22.6795 10.8576 22.9546 10.7095C23.2297 10.5571 23.4476 10.3498 23.6084 10.0874C23.7734 9.8208 23.856 9.51188 23.856 9.16064C23.856 8.80518 23.7734 8.49626 23.6084 8.23389C23.4476 7.96729 23.2297 7.75993 22.9546 7.61182C22.6795 7.4637 22.3706 7.38965 22.0278 7.38965H15.9658C15.623 7.38965 15.312 7.4637 15.0327 7.61182C14.7576 7.75993 14.5397 7.96729 14.3789 8.23389C14.2181 8.49626 14.1377 8.80518 14.1377 9.16064C14.1377 9.51188 14.2181 9.8208 14.3789 10.0874C14.5397 10.3498 14.7576 10.5571 15.0327 10.7095C15.312 10.8576 15.623 10.9316 15.9658 10.9316ZM15.9658 10.5254C15.6992 10.5254 15.458 10.4683 15.2422 10.354C15.0306 10.2397 14.8613 10.0811 14.7344 9.87793C14.6117 9.67057 14.5503 9.42936 14.5503 9.1543C14.5503 8.87923 14.6117 8.64014 14.7344 8.43701C14.8613 8.22965 15.0306 8.06885 15.2422 7.95459C15.458 7.84033 15.6992 7.7832 15.9658 7.7832H17.0259C17.2882 7.7832 17.5252 7.84033 17.7368 7.95459C17.9526 8.06885 18.1219 8.22965 18.2446 8.43701C18.3716 8.64437 18.4351 8.88558 18.4351 9.16064C18.4351 9.43148 18.3716 9.67057 18.2446 9.87793C18.1219 10.0811 17.9526 10.2397 17.7368 10.354C17.5252 10.4683 17.2882 10.5254 17.0259 10.5254H15.9658ZM15.6929 18.7139C15.1554 18.7139 14.6688 18.5954 14.2329 18.3584C13.8013 18.1257 13.4564 17.8019 13.1982 17.3872C12.9443 16.9725 12.8174 16.4922 12.8174 15.9463C12.8174 15.4004 12.9443 14.9201 13.1982 14.5054C13.4564 14.0907 13.8013 13.7669 14.2329 13.5342C14.6688 13.2972 15.1554 13.1787 15.6929 13.1787H22.3008C22.8382 13.1787 23.3228 13.2972 23.7544 13.5342C24.1903 13.7669 24.5352 14.0907 24.7891 14.5054C25.0472 14.9201 25.1763 15.4004 25.1763 15.9463C25.1763 16.4922 25.0472 16.9725 24.7891 17.3872C24.5352 17.8019 24.1903 18.1257 23.7544 18.3584C23.3228 18.5954 22.8382 18.7139 22.3008 18.7139H15.6929ZM21.2534 17.4507H22.415C22.7113 17.4507 22.9757 17.3872 23.2085 17.2603C23.4455 17.1333 23.6317 16.9577 23.7671 16.7334C23.9025 16.5091 23.9702 16.2467 23.9702 15.9463C23.9702 15.6458 23.9025 15.3835 23.7671 15.1592C23.6317 14.9307 23.4455 14.7529 23.2085 14.626C22.9757 14.499 22.7113 14.4355 22.415 14.4355H21.2534C20.9614 14.4355 20.6991 14.499 20.4663 14.626C20.2336 14.7529 20.0474 14.9285 19.9077 15.1528C19.7723 15.3771 19.7046 15.6395 19.7046 15.9399C19.7046 16.2446 19.7723 16.5091 19.9077 16.7334C20.0474 16.9577 20.2336 17.1333 20.4663 17.2603C20.6991 17.3872 20.9614 17.4507 21.2534 17.4507Z" fill="black"/>
<path d="M15.9658 12.2075C15.3691 12.2075 14.8317 12.0806 14.3535 11.8267C13.8796 11.5728 13.505 11.2173 13.23 10.7603C12.9549 10.299 12.8174 9.76579 12.8174 9.16064C12.8174 8.55127 12.9549 8.01807 13.23 7.56104C13.505 7.09977 13.8796 6.74219 14.3535 6.48828C14.8317 6.23438 15.3691 6.10742 15.9658 6.10742H22.0278C22.6245 6.10742 23.1598 6.23438 23.6338 6.48828C24.112 6.74219 24.4886 7.09977 24.7637 7.56104C25.0387 8.01807 25.1763 8.55127 25.1763 9.16064C25.1763 9.76579 25.0387 10.299 24.7637 10.7603C24.4886 11.2173 24.112 11.5728 23.6338 11.8267C23.1598 12.0806 22.6245 12.2075 22.0278 12.2075H15.9658ZM15.9658 10.9316H22.0278C22.3706 10.9316 22.6795 10.8576 22.9546 10.7095C23.2297 10.5571 23.4476 10.3498 23.6084 10.0874C23.7734 9.8208 23.856 9.51188 23.856 9.16064C23.856 8.80518 23.7734 8.49626 23.6084 8.23389C23.4476 7.96729 23.2297 7.75993 22.9546 7.61182C22.6795 7.4637 22.3706 7.38965 22.0278 7.38965H15.9658C15.623 7.38965 15.312 7.4637 15.0327 7.61182C14.7576 7.75993 14.5397 7.96729 14.3789 8.23389C14.2181 8.49626 14.1377 8.80518 14.1377 9.16064C14.1377 9.51188 14.2181 9.8208 14.3789 10.0874C14.5397 10.3498 14.7576 10.5571 15.0327 10.7095C15.312 10.8576 15.623 10.9316 15.9658 10.9316ZM15.9658 10.5254C15.6992 10.5254 15.458 10.4683 15.2422 10.354C15.0306 10.2397 14.8613 10.0811 14.7344 9.87793C14.6117 9.67057 14.5503 9.42936 14.5503 9.1543C14.5503 8.87923 14.6117 8.64014 14.7344 8.43701C14.8613 8.22965 15.0306 8.06885 15.2422 7.95459C15.458 7.84033 15.6992 7.7832 15.9658 7.7832H17.0259C17.2882 7.7832 17.5252 7.84033 17.7368 7.95459C17.9526 8.06885 18.1219 8.22965 18.2446 8.43701C18.3716 8.64437 18.4351 8.88558 18.4351 9.16064C18.4351 9.43148 18.3716 9.67057 18.2446 9.87793C18.1219 10.0811 17.9526 10.2397 17.7368 10.354C17.5252 10.4683 17.2882 10.5254 17.0259 10.5254H15.9658ZM15.6929 18.7139C15.1554 18.7139 14.6688 18.5954 14.2329 18.3584C13.8013 18.1257 13.4564 17.8019 13.1982 17.3872C12.9443 16.9725 12.8174 16.4922 12.8174 15.9463C12.8174 15.4004 12.9443 14.9201 13.1982 14.5054C13.4564 14.0907 13.8013 13.7669 14.2329 13.5342C14.6688 13.2972 15.1554 13.1787 15.6929 13.1787H22.3008C22.8382 13.1787 23.3228 13.2972 23.7544 13.5342C24.1903 13.7669 24.5352 14.0907 24.7891 14.5054C25.0472 14.9201 25.1763 15.4004 25.1763 15.9463C25.1763 16.4922 25.0472 16.9725 24.7891 17.3872C24.5352 17.8019 24.1903 18.1257 23.7544 18.3584C23.3228 18.5954 22.8382 18.7139 22.3008 18.7139H15.6929ZM21.2534 17.4507H22.415C22.7113 17.4507 22.9757 17.3872 23.2085 17.2603C23.4455 17.1333 23.6317 16.9577 23.7671 16.7334C23.9025 16.5091 23.9702 16.2467 23.9702 15.9463C23.9702 15.6458 23.9025 15.3835 23.7671 15.1592C23.6317 14.9307 23.4455 14.7529 23.2085 14.626C22.9757 14.499 22.7113 14.4355 22.415 14.4355H21.2534C20.9614 14.4355 20.6991 14.499 20.4663 14.626C20.2336 14.7529 20.0474 14.9285 19.9077 15.1528C19.7723 15.3771 19.7046 15.6395 19.7046 15.9399C19.7046 16.2446 19.7723 16.5091 19.9077 16.7334C20.0474 16.9577 20.2336 17.1333 20.4663 17.2603C20.6991 17.3872 20.9614 17.4507 21.2534 17.4507Z" fill="black" fill-opacity="0.2"/>
</svg>
