<svg width="38" height="24" viewBox="0 0 38 24" fill="none" xmlns="http://www.w3.org/2000/svg">
<path d="M12.6841 11.2871C12.6841 10.5677 12.8195 9.89062 13.0903 9.25586C13.3612 8.62109 13.7378 8.06462 14.2202 7.58643C14.7026 7.104 15.2591 6.72738 15.8896 6.45654C16.5244 6.18571 17.2036 6.05029 17.9272 6.05029C18.6509 6.05029 19.328 6.18571 19.9585 6.45654C20.5933 6.72738 21.1519 7.104 21.6343 7.58643C22.1167 8.06462 22.4933 8.62109 22.7642 9.25586C23.035 9.89062 23.1704 10.5677 23.1704 11.2871C23.1704 11.8288 23.09 12.3451 22.9292 12.8359C22.7726 13.3268 22.5526 13.7775 22.269 14.188L25.0049 16.9365C25.1064 17.0423 25.1826 17.1587 25.2334 17.2856C25.2884 17.4168 25.3159 17.5565 25.3159 17.7046C25.3159 17.9077 25.2694 18.0918 25.1763 18.2568C25.0832 18.4219 24.9562 18.5509 24.7954 18.644C24.6346 18.7414 24.4484 18.79 24.2368 18.79C24.0929 18.79 23.9533 18.7646 23.8179 18.7139C23.6825 18.6631 23.5618 18.5848 23.4561 18.479L20.6948 15.7178C20.297 15.9717 19.8633 16.1727 19.3936 16.3208C18.9281 16.4647 18.4393 16.5366 17.9272 16.5366C17.2036 16.5366 16.5244 16.4012 15.8896 16.1304C15.2591 15.8595 14.7026 15.4829 14.2202 15.0005C13.7378 14.5181 13.3612 13.9595 13.0903 13.3247C12.8195 12.6899 12.6841 12.0107 12.6841 11.2871ZM14.1821 11.2871C14.1821 11.8076 14.2773 12.2943 14.4678 12.7471C14.6624 13.1999 14.9312 13.5977 15.2739 13.9404C15.6209 14.2832 16.0208 14.5519 16.4736 14.7466C16.9264 14.9412 17.411 15.0386 17.9272 15.0386C18.4435 15.0386 18.9281 14.9412 19.3809 14.7466C19.8337 14.5519 20.2314 14.2832 20.5742 13.9404C20.917 13.5977 21.1857 13.1999 21.3804 12.7471C21.575 12.2943 21.6724 11.8076 21.6724 11.2871C21.6724 10.7708 21.575 10.2884 21.3804 9.83984C21.1857 9.38704 20.917 8.98926 20.5742 8.64648C20.2314 8.29948 19.8337 8.02865 19.3809 7.83398C18.9281 7.63932 18.4435 7.54199 17.9272 7.54199C17.411 7.54199 16.9264 7.63932 16.4736 7.83398C16.0208 8.02865 15.6209 8.29948 15.2739 8.64648C14.9312 8.98926 14.6624 9.38704 14.4678 9.83984C14.2773 10.2884 14.1821 10.7708 14.1821 11.2871Z" fill="black"/>
<path d="M12.6841 11.2871C12.6841 10.5677 12.8195 9.89062 13.0903 9.25586C13.3612 8.62109 13.7378 8.06462 14.2202 7.58643C14.7026 7.104 15.2591 6.72738 15.8896 6.45654C16.5244 6.18571 17.2036 6.05029 17.9272 6.05029C18.6509 6.05029 19.328 6.18571 19.9585 6.45654C20.5933 6.72738 21.1519 7.104 21.6343 7.58643C22.1167 8.06462 22.4933 8.62109 22.7642 9.25586C23.035 9.89062 23.1704 10.5677 23.1704 11.2871C23.1704 11.8288 23.09 12.3451 22.9292 12.8359C22.7726 13.3268 22.5526 13.7775 22.269 14.188L25.0049 16.9365C25.1064 17.0423 25.1826 17.1587 25.2334 17.2856C25.2884 17.4168 25.3159 17.5565 25.3159 17.7046C25.3159 17.9077 25.2694 18.0918 25.1763 18.2568C25.0832 18.4219 24.9562 18.5509 24.7954 18.644C24.6346 18.7414 24.4484 18.79 24.2368 18.79C24.0929 18.79 23.9533 18.7646 23.8179 18.7139C23.6825 18.6631 23.5618 18.5848 23.4561 18.479L20.6948 15.7178C20.297 15.9717 19.8633 16.1727 19.3936 16.3208C18.9281 16.4647 18.4393 16.5366 17.9272 16.5366C17.2036 16.5366 16.5244 16.4012 15.8896 16.1304C15.2591 15.8595 14.7026 15.4829 14.2202 15.0005C13.7378 14.5181 13.3612 13.9595 13.0903 13.3247C12.8195 12.6899 12.6841 12.0107 12.6841 11.2871ZM14.1821 11.2871C14.1821 11.8076 14.2773 12.2943 14.4678 12.7471C14.6624 13.1999 14.9312 13.5977 15.2739 13.9404C15.6209 14.2832 16.0208 14.5519 16.4736 14.7466C16.9264 14.9412 17.411 15.0386 17.9272 15.0386C18.4435 15.0386 18.9281 14.9412 19.3809 14.7466C19.8337 14.5519 20.2314 14.2832 20.5742 13.9404C20.917 13.5977 21.1857 13.1999 21.3804 12.7471C21.575 12.2943 21.6724 11.8076 21.6724 11.2871C21.6724 10.7708 21.575 10.2884 21.3804 9.83984C21.1857 9.38704 20.917 8.98926 20.5742 8.64648C20.2314 8.29948 19.8337 8.02865 19.3809 7.83398C18.9281 7.63932 18.4435 7.54199 17.9272 7.54199C17.411 7.54199 16.9264 7.63932 16.4736 7.83398C16.0208 8.02865 15.6209 8.29948 15.2739 8.64648C14.9312 8.98926 14.6624 9.38704 14.4678 9.83984C14.2773 10.2884 14.1821 10.7708 14.1821 11.2871Z" fill="black" fill-opacity="0.2"/>
</svg>
