<svg width="38" height="24" viewBox="0 0 38 24" fill="none" xmlns="http://www.w3.org/2000/svg">
<path d="M19 19.0376C18.0859 19.0376 17.229 18.8641 16.4292 18.5171C15.6294 18.1743 14.9248 17.7004 14.3154 17.0952C13.7103 16.4901 13.2363 15.7876 12.8936 14.9878C12.5508 14.188 12.3794 13.3311 12.3794 12.417C12.3794 11.5029 12.5508 10.646 12.8936 9.84619C13.2363 9.04639 13.7103 8.34391 14.3154 7.73877C14.9248 7.12939 15.6294 6.65332 16.4292 6.31055C17.229 5.96777 18.0859 5.79639 19 5.79639C19.9141 5.79639 20.771 5.96777 21.5708 6.31055C22.3706 6.65332 23.0731 7.12939 23.6782 7.73877C24.2834 8.34391 24.7573 9.04639 25.1001 9.84619C25.4471 10.646 25.6206 11.5029 25.6206 12.417C25.6206 13.3311 25.4471 14.188 25.1001 14.9878C24.7573 15.7876 24.2834 16.4901 23.6782 17.0952C23.0731 17.7004 22.3706 18.1743 21.5708 18.5171C20.771 18.8641 19.9141 19.0376 19 19.0376ZM19 17.584C19.7152 17.584 20.3838 17.4507 21.0059 17.1841C21.6322 16.9175 22.1802 16.5472 22.6499 16.0732C23.1239 15.5951 23.4941 15.0449 23.7607 14.4229C24.0316 13.7965 24.167 13.1279 24.167 12.417C24.167 11.7018 24.0316 11.0332 23.7607 10.4111C23.4941 9.78483 23.1239 9.2347 22.6499 8.76074C22.1802 8.28678 21.6322 7.9165 21.0059 7.6499C20.3838 7.3833 19.7152 7.25 19 7.25C18.2848 7.25 17.6141 7.3833 16.9878 7.6499C16.3657 7.9165 15.8177 8.28678 15.3438 8.76074C14.8698 9.2347 14.4995 9.78483 14.2329 10.4111C13.9663 11.0332 13.833 11.7018 13.833 12.417C13.833 13.1279 13.9663 13.7965 14.2329 14.4229C14.4995 15.0449 14.8698 15.5951 15.3438 16.0732C15.8177 16.5472 16.3657 16.9175 16.9878 17.1841C17.6141 17.4507 18.2848 17.584 19 17.584ZM23.1514 16.6128C22.7367 16.9683 22.2839 17.2666 21.793 17.5078C21.3063 17.7533 20.8197 17.9373 20.333 18.0601C19.8464 18.187 19.402 18.2505 19 18.2505C18.6064 18.2505 18.1642 18.187 17.6733 18.0601C17.1867 17.9373 16.6979 17.7533 16.207 17.5078C15.7161 17.2666 15.2655 16.9683 14.855 16.6128L14.8804 16.4731C15.0369 16.1642 15.3057 15.8701 15.6865 15.5908C16.0674 15.3073 16.5392 15.0767 17.1021 14.8989C17.6649 14.7212 18.2975 14.6323 19 14.6323C19.7109 14.6323 20.3478 14.7212 20.9106 14.8989C21.4735 15.0767 21.9432 15.3073 22.3198 15.5908C22.7007 15.8701 22.9694 16.1663 23.126 16.4795L23.1514 16.6128ZM19 13.6104C18.5895 13.6061 18.2192 13.4982 17.8892 13.2866C17.5591 13.075 17.2967 12.7894 17.1021 12.4297C16.9116 12.0658 16.8143 11.6574 16.8101 11.2046C16.8058 10.7772 16.901 10.3857 17.0957 10.0303C17.2946 9.6748 17.5591 9.38916 17.8892 9.17334C18.2235 8.95752 18.5938 8.84961 19 8.84961C19.4105 8.84961 19.7808 8.95752 20.1108 9.17334C20.4409 9.38916 20.7033 9.6748 20.8979 10.0303C21.0968 10.3857 21.1963 10.7772 21.1963 11.2046C21.1963 11.6574 21.099 12.0658 20.9043 12.4297C20.7096 12.7936 20.4473 13.0835 20.1172 13.2993C19.7871 13.5109 19.4147 13.6146 19 13.6104Z" fill="black"/>
<path d="M19 19.0376C18.0859 19.0376 17.229 18.8641 16.4292 18.5171C15.6294 18.1743 14.9248 17.7004 14.3154 17.0952C13.7103 16.4901 13.2363 15.7876 12.8936 14.9878C12.5508 14.188 12.3794 13.3311 12.3794 12.417C12.3794 11.5029 12.5508 10.646 12.8936 9.84619C13.2363 9.04639 13.7103 8.34391 14.3154 7.73877C14.9248 7.12939 15.6294 6.65332 16.4292 6.31055C17.229 5.96777 18.0859 5.79639 19 5.79639C19.9141 5.79639 20.771 5.96777 21.5708 6.31055C22.3706 6.65332 23.0731 7.12939 23.6782 7.73877C24.2834 8.34391 24.7573 9.04639 25.1001 9.84619C25.4471 10.646 25.6206 11.5029 25.6206 12.417C25.6206 13.3311 25.4471 14.188 25.1001 14.9878C24.7573 15.7876 24.2834 16.4901 23.6782 17.0952C23.0731 17.7004 22.3706 18.1743 21.5708 18.5171C20.771 18.8641 19.9141 19.0376 19 19.0376ZM19 17.584C19.7152 17.584 20.3838 17.4507 21.0059 17.1841C21.6322 16.9175 22.1802 16.5472 22.6499 16.0732C23.1239 15.5951 23.4941 15.0449 23.7607 14.4229C24.0316 13.7965 24.167 13.1279 24.167 12.417C24.167 11.7018 24.0316 11.0332 23.7607 10.4111C23.4941 9.78483 23.1239 9.2347 22.6499 8.76074C22.1802 8.28678 21.6322 7.9165 21.0059 7.6499C20.3838 7.3833 19.7152 7.25 19 7.25C18.2848 7.25 17.6141 7.3833 16.9878 7.6499C16.3657 7.9165 15.8177 8.28678 15.3438 8.76074C14.8698 9.2347 14.4995 9.78483 14.2329 10.4111C13.9663 11.0332 13.833 11.7018 13.833 12.417C13.833 13.1279 13.9663 13.7965 14.2329 14.4229C14.4995 15.0449 14.8698 15.5951 15.3438 16.0732C15.8177 16.5472 16.3657 16.9175 16.9878 17.1841C17.6141 17.4507 18.2848 17.584 19 17.584ZM23.1514 16.6128C22.7367 16.9683 22.2839 17.2666 21.793 17.5078C21.3063 17.7533 20.8197 17.9373 20.333 18.0601C19.8464 18.187 19.402 18.2505 19 18.2505C18.6064 18.2505 18.1642 18.187 17.6733 18.0601C17.1867 17.9373 16.6979 17.7533 16.207 17.5078C15.7161 17.2666 15.2655 16.9683 14.855 16.6128L14.8804 16.4731C15.0369 16.1642 15.3057 15.8701 15.6865 15.5908C16.0674 15.3073 16.5392 15.0767 17.1021 14.8989C17.6649 14.7212 18.2975 14.6323 19 14.6323C19.7109 14.6323 20.3478 14.7212 20.9106 14.8989C21.4735 15.0767 21.9432 15.3073 22.3198 15.5908C22.7007 15.8701 22.9694 16.1663 23.126 16.4795L23.1514 16.6128ZM19 13.6104C18.5895 13.6061 18.2192 13.4982 17.8892 13.2866C17.5591 13.075 17.2967 12.7894 17.1021 12.4297C16.9116 12.0658 16.8143 11.6574 16.8101 11.2046C16.8058 10.7772 16.901 10.3857 17.0957 10.0303C17.2946 9.6748 17.5591 9.38916 17.8892 9.17334C18.2235 8.95752 18.5938 8.84961 19 8.84961C19.4105 8.84961 19.7808 8.95752 20.1108 9.17334C20.4409 9.38916 20.7033 9.6748 20.8979 10.0303C21.0968 10.3857 21.1963 10.7772 21.1963 11.2046C21.1963 11.6574 21.099 12.0658 20.9043 12.4297C20.7096 12.7936 20.4473 13.0835 20.1172 13.2993C19.7871 13.5109 19.4147 13.6146 19 13.6104Z" fill="black" fill-opacity="0.2"/>
</svg>
